HIERARCHY
ROOT Hips
{
	OFFSET 0.00000 0.00000 0.00000
	CHANNELS 6 Xposition Yposition Zposition Yrotation Zrotation Xrotation 
	JOINT Lumbar
	{
		OFFSET 0 0 0
		CHANNELS 3 Zrotation Xrotation Yrotation
		JOINT Neck
		{
			OFFSET 0.00 0.2701 0.00
			CHANNELS 3 Zrotation Xrotation Yrotation
			End Site
			{
				OFFSET 0.00 0.1379 0.00
			}
		}
		JOINT RightShoulder
		{
			OFFSET 0.0119 0.2289 0.1181
			CHANNELS 3 Zrotation Xrotation Yrotation
			JOINT RightElbow
			{
				OFFSET 0.00 -0.1475 0.00
				CHANNELS 2 Zrotation Yrotation
				JOINT RightWrist
				{
					OFFSET 0.00 -0.1605 0.00
					CHANNELS 2 Zrotation Xrotation
					End Site
					{
						OFFSET 0.0040 -0.1068 0.0006
					}
				}
			}
		}
		JOINT LeftShoulder
		{
			OFFSET 0.0119 0.2289 -0.1181
			CHANNELS 3 Zrotation Xrotation Yrotation
			JOINT LeftElbow
			{
				OFFSET 0.00 -0.1475 0.00
				CHANNELS 2 Zrotation Yrotation
				JOINT LeftWrist
				{
					OFFSET 0.00 -0.1605 0.00
					CHANNELS 2 Zrotation Xrotation
					End Site
					{
						OFFSET 0.0040 -0.1068 -0.0006
					}
				}
			}
		}
	}
	JOINT RightHip
	{
		OFFSET 0.0316 -0.0424 0.0458
		CHANNELS 3 Zrotation Xrotation Yrotation
		JOINT RightKnee
		{
			OFFSET 0.00 -0.2438 0.00
			CHANNELS 1 Zrotation
			JOINT RightAnkle
			{
				OFFSET 0.00 -0.2449 0.00
				CHANNELS 3 Zrotation Xrotation Yrotation
				End Site
				{
					OFFSET 0.1237 -0.0542 0.0051
				}
			}
		}
	}
	JOINT LeftHip
	{
		OFFSET 0.0316 -0.0424 -0.0458
		CHANNELS 3 Zrotation Xrotation Yrotation
		JOINT LeftKnee
		{
			OFFSET 0.00 -0.2438 0.00
			CHANNELS 1 Zrotation
			JOINT LeftAnkle
			{
				OFFSET 0.00 -0.2449 0.00
				CHANNELS 3 Zrotation Xrotation Yrotation
				End Site
				{
					OFFSET 0.1237 -0.0542 -0.0051
				}
			}
		}
	}
}
MOTION
Frames: 22
Frame Time: 0.02
0.03206 -0.01561 0.06182 25.19995 -16.75738 -13.48613 42.38539 7.2156 -12.99704 -2.5459 -5.06081 -2.11409 -58.46942 -56.3421 47.13898 110.50071 80.56142 -7.93141 -2.44266 45.43229 -11.75688 -16.78714 128.15207 -82.27911 3.88619 2.55578 29.89931 10.50602 -30.32114 -21.62953 -7.30463 0.5397 -2.10759 45.91978 1.60045 21.55324 -57.60666 -9.45717 0.63191 2.67552
0.03254 -0.01562 0.06195 25.22069 -16.7063 -13.49649 42.39168 7.16058 -12.93394 -2.70429 -5.02406 -2.1141 -58.79357 -56.22554 46.71172 110.45069 80.58739 -7.91009 -2.41542 45.1662 -11.66302 -16.80416 128.19739 -82.30066 4.06194 2.5596 29.78758 10.52613 -30.52173 -21.63481 -7.68501 0.2873 -2.22159 45.84939 1.62355 21.44732 -57.66423 -9.43077 0.63623 2.67588
0.03311 -0.01562 0.06204 25.22116 -16.625 -13.49812 42.40486 7.10886 -12.8225 -2.8706 -4.97172 -2.11412 -59.40316 -55.94742 45.92654 110.39207 80.58419 -7.85286 -2.31577 44.86689 -11.5543 -16.83329 128.24765 -82.32298 4.26012 2.55971 29.62841 10.54513 -30.72096 -21.63428 -7.50362 0.41005 -2.14711 45.71791 1.6155 21.30611 -57.67642 -9.38913 0.6481 2.67898
0.03364 -0.01561 0.06214 25.22936 -16.55799 -13.503 42.42033 7.05633 -12.73264 -3.03847 -4.92514 -2.11413 -59.84636 -55.77073 45.35272 110.34097 80.59772 -7.8156 -2.25681 44.57331 -11.45706 -16.8529 128.29684 -82.34348 4.4604 2.55514 29.49098 10.56431 -30.91361 -21.63552 -7.53092 0.3967 -2.14251 45.60577 1.61285 21.18067 -57.69305 -9.35185 0.65848 2.68174
0.03417 -0.01563 0.06229 25.24571 -16.48844 -13.51092 42.4138 6.99976 -12.64599 -3.18529 -4.88561 -2.11414 -60.43203 -55.48348 44.58969 110.27614 80.59754 -7.76587 -2.16798 44.31546 -11.34893 -16.88618 128.34139 -82.36669 4.61689 2.57629 29.35147 10.58465 -31.13968 -21.64026 -7.78234 0.22113 -2.21318 45.52812 1.64669 21.05544 -57.7784 -9.32531 0.66072 2.6807
0.03471 -0.0156 0.06232 25.23888 -16.41699 -13.51057 42.4545 6.95329 -12.54058 -3.37762 -4.82664 -2.11416 -60.79736 -55.38399 44.12344 110.23687 80.61861 -7.73134 -2.12291 43.97747 -11.25204 -16.89558 128.39652 -82.38713 4.86462 2.54455 29.20561 10.60231 -31.29477 -21.63653 -7.43247 0.47179 -2.08228 45.36449 1.59749 20.92259 -57.70928 -9.27284 0.68176 2.68825
0.03528 -0.01542 0.06206 25.1809 -16.3487 -13.48795 42.6223 6.92837 -12.39546 -3.69267 -4.724 -2.11417 -60.43546 -55.85825 44.63868 110.27503 80.70498 -7.75946 -2.21809 43.41707 -11.24323 -16.82981 128.4813 -82.3822 5.3871 2.35356 29.05274 10.61378 -31.25282 -21.60924 -5.445 1.8971 -1.40063 44.97959 1.3245 20.76679 -57.2304 -9.15235 0.75187 2.71842
0.03586 -0.01519 0.06169 25.0985 -16.27929 -13.45764 42.83734 6.9147 -12.23313 -4.05327 -4.60112 -2.11419 -59.85152 -56.52377 45.44981 110.33795 80.81318 -7.80031 -2.35926 42.77891 -11.23486 -16.7407 128.57615 -82.37741 5.99549 2.11198 28.89543 10.62249 -31.13946 -21.57392 -2.8895 3.72454 -0.52887 44.51068 0.96969 20.60635 -56.59729 -9.00647 0.84076 2.75719
0.03642 -0.01499 0.06136 25.02212 -16.20993 -13.43183 43.03197 6.89952 -12.07792 -4.39359 -4.4832 -2.1142 -59.40341 -57.08975 46.07517 110.38653 80.91231 -7.829 -2.47768 42.1834 -11.19176 -16.66736 128.66542 -82.38512 6.54404 1.90297 28.74108 10.63184 -31.05902 -21.54338 -0.66162 5.31387 0.23189 44.079 0.65343 20.45512 -56.03014 -8.87216 0.92173 2.79232
0.03704 -0.01477 0.06108 24.96711 -16.14194 -13.40133 43.22328 6.86894 -11.92284 -4.73258 -4.38228 -2.11421 -58.82065 -57.70115 46.90431 110.44874 81.00911 -7.88889 -2.60079 41.55755 -11.29744 -16.57449 128.75946 -82.34227 7.17748 1.65388 28.58126 10.64359 -30.97591 -21.50797 1.8856 7.15283 1.10494 43.64726 0.32929 20.2733 -55.47585 -8.73665 1.00052 2.8265
0.03753 -0.01458 0.06067 24.86128 -16.0706 -13.37909 43.43152 6.87343 -11.76551 -5.08484 -4.24181 -2.11423 -58.45822 -58.26839 47.3845 110.48748 81.11349 -7.88039 -2.72677 40.97467 -11.08921 -16.51423 128.84541 -82.40163 7.65897 1.47567 28.43215 10.64988 -30.88231 -21.48076 3.88648 8.55842 1.78425 43.19888 0.00382 20.15379 -54.8625 -8.59849 1.08801 2.86458
0.03767 -0.0145 0.05991 24.62801 -15.99598 -13.3795 43.68434 6.96886 -11.59367 -5.46444 -3.99314 -2.11424 -58.78786 -58.64397 46.82614 110.46462 81.25833 -7.74062 -2.84243 40.54812 -10.04818 -16.57064 128.90958 -82.77009 7.65844 1.51138 28.3166 10.64024 -30.76878 -21.47917 4.31795 8.70518 1.90499 42.70626 -0.3163 20.21398 -54.09326 -8.45359 1.19667 2.91205
0.03767 -0.01445 0.05903 24.34358 -15.91723 -13.38881 43.9508 7.0996 -11.42277 -5.85548 -3.7063 -2.11426 -59.33898 -58.97479 45.90962 110.41579 81.40594 -7.52169 -2.96069 40.16382 -8.68344 -16.65697 128.96394 -83.23627 7.50966 1.6193 28.21188 10.62543 -30.64829 -21.48592 4.16521 8.39479 1.8198 42.20453 -0.63272 20.33584 -53.27692 -8.30819 1.31306 2.963
0.03772 -0.01439 0.05822 24.07772 -15.83671 -13.3956 44.20474 7.2164 -11.25982 -6.24004 -3.43938 -2.11427 -59.76933 -59.34043 45.15928 110.37256 81.53563 -7.2978 -3.08318 39.7486 -7.44643 -16.71553 129.02166 -83.64029 7.45572 1.6901 28.10032 10.61411 -30.53707 -21.48826 4.22271 8.26624 1.81194 41.71853 -0.94348 20.42557 -52.50104 -8.16653 1.42476 3.0119
0.03785 -0.01431 0.05736 23.8294 -15.77117 -13.39614 44.48688 7.32533 -11.0607 -6.63152 -3.16029 -2.11429 -60.28126 -59.64659 44.40056 110.35559 81.7348 -7.24201 -3.18588 39.38167 -6.29727 -16.83209 129.08728 -84.11985 7.28869 1.77651 27.9959 10.5982 -30.39938 -21.49309 4.52327 8.25538 1.87622 41.17695 -1.28815 20.5331 -51.63486 -8.00839 1.54219 3.06309
0.03778 -0.01428 0.05658 23.53441 -15.67391 -13.41134 44.71311 7.45812 -10.93759 -7.01082 -2.89848 -2.1143 -60.67342 -60.0697 43.57554 110.2784 81.79166 -6.82356 -3.32797 38.92326 -4.88069 -16.83654 129.13033 -84.46454 7.32106 1.84924 27.88021 10.59023 -30.31386 -21.49463 4.1844 7.89306 1.74291 40.75466 -1.56018 20.61741 -50.95317 -7.88573 1.64915 3.11022
0.03728 -0.01435 0.05608 23.10831 -15.48587 -13.46946 44.77882 7.65487 -11.02178 -7.35208 -2.68764 -2.11432 -60.72722 -60.77278 42.60956 110.03303 81.43747 -5.36891 -3.59417 38.21817 -2.87057 -16.51233 129.14519 -84.42134 7.93982 1.85735 27.72249 10.60903 -30.39338 -21.48683 2.10589 6.60436 1.07784 40.62609 -1.63213 20.63068 -50.74509 -7.85299 1.72623 3.14526
0.0366 -0.01446 0.05568 22.63973 -15.26666 -13.54106 44.78764 7.87321 -11.18242 -7.68058 -2.49679 -2.11433 -60.64571 -61.60372 41.59577 109.72947 80.94337 -3.56304 -3.89688 37.41631 -0.59122 -16.07607 129.13215 -84.23912 8.76487 1.85083 27.55452 10.63527 -30.52224 -21.47518 -0.57766 4.98798 0.22669 40.6259 -1.6305 20.6175 -50.7335 -7.85735 1.79226 3.17603
0.03597 -0.01455 0.05522 22.20062 -15.06473 -13.60363 44.82468 8.07707 -11.31042 -8.016 -2.30084 -2.11435 -60.59608 -62.41113 40.63291 109.45774 80.52427 -1.95213 -4.17194 36.64923 1.60927 -15.69961 129.11045 -84.11294 9.4943 1.85775 27.39688 10.65587 -30.61643 -21.4641 -2.90967 3.56438 -0.51604 40.59158 -1.66275 20.61046 -50.66433 -7.85056 1.86265 3.20874
0.03545 -0.01466 0.05479 21.71747 -14.85028 -13.67928 44.85404 8.30146 -11.43181 -8.3479 -2.08659 -2.11436 -60.67705 -63.07312 39.53651 109.162 80.05596 -0.18517 -4.49305 35.92488 3.64158 -15.28884 129.17665 -84.01351 10.22307 1.83991 27.21617 10.68615 -30.76267 -21.45812 -5.58243 1.9413 -1.36578 40.45257 -1.69414 20.62824 -50.46126 -7.82078 1.93606 3.24164
0.03467 -0.01474 0.05435 21.31577 -14.65361 -13.73014 44.88346 8.48828 -11.58229 -8.68297 -1.9159 -2.11438 -60.45352 -64.0664 38.70896 108.90328 79.65826 1.33402 -4.72781 35.08489 6.07871 -14.91984 129.05559 -83.83259 11.00843 1.86744 27.0803 10.69768 -30.81154 -21.44073 -7.68479 0.66007 -2.03513 40.56486 -1.70854 20.58993 -50.58219 -7.84627 2.00051 3.27303
0.03323 -0.0147 0.05384 21.15728 -14.52189 -13.71466 44.94608 8.56122 -11.81898 -9.03811 -1.85937 -2.11439 -59.39738 -65.96598 38.66169 108.7575 79.4793 2.1251 -4.70752 33.97342 9.60981 -14.71402 128.40484 -83.39015 11.86397 2.03876 27.07625 10.65905 -30.58631 -21.3907 -8.03435 0.41975 -2.15159 41.31691 -1.70545 20.37973 -51.56382 -8.02797 2.04201 3.30143
